<?xml version="1.0" ?><svg style="enable-background:new 0 0 24 24;" version="1.1" viewBox="0 0 24 24" xml:space="preserve" xmlns="http://www.w3.org/2000/svg" xmlns:xlink="http://www.w3.org/1999/xlink"><style type="text/css">
	.st0{opacity:0.2;fill:none;stroke:#000000;stroke-width:5.000000e-02;stroke-miterlimit:10;}
</style><g id="grid_system"/><g id="_icons"><path d="M4.6,19.9C4.7,20,4.9,20,5,20h3c0.6,0,1-0.4,1-1s-0.4-1-1-1H7.4l3.3-3.3c0.4-0.4,0.4-1,0-1.4s-1-0.4-1.4,0L6,16.6V16   c0-0.6-0.4-1-1-1s-1,0.4-1,1v3c0,0.1,0,0.3,0.1,0.4C4.2,19.6,4.4,19.8,4.6,19.9z"/><path d="M15.3,16.7c0.2,0.2,0.5,0.3,0.7,0.3s0.5-0.1,0.7-0.3c0.4-0.4,0.4-1,0-1.4l-8-8c-0.4-0.4-1-0.4-1.4,0s-0.4,1,0,1.4   L15.3,16.7z"/><path d="M14,11c0.3,0,0.5-0.1,0.7-0.3L18,7.4V8c0,0.6,0.4,1,1,1s1-0.4,1-1V5c0-0.1,0-0.3-0.1-0.4c-0.1-0.2-0.3-0.4-0.5-0.5   C19.3,4,19.1,4,19,4h-3c-0.6,0-1,0.4-1,1s0.4,1,1,1h0.6l-3.3,3.3c-0.4,0.4-0.4,1,0,1.4C13.5,10.9,13.7,11,14,11z"/></g></svg>