<?xml version="1.0" ?><svg viewBox="0 0 24 24" xmlns="http://www.w3.org/2000/svg"><title/><g data-name="Layer 2" id="Layer_2"><path d="M19,2H5A1,1,0,0,0,4,3V21a1,1,0,0,0,1,1H19a1,1,0,0,0,1-1V3A1,1,0,0,0,19,2ZM18,20H6V4H18Z"/><path d="M12,10a4,4,0,1,0,4,4A4,4,0,0,0,12,10Zm0,6a2,2,0,1,1,2-2A2,2,0,0,1,12,16Z"/><rect height="2" width="8" x="8" y="5"/><rect height="2" width="2" x="7" y="9"/><rect height="2" width="2" x="7" y="17"/><rect height="2" width="2" x="15" y="9"/><rect height="2" width="2" x="15" y="17"/></g></svg>